<svg width="18" height="18" viewBox="0 0 18 18" fill="none" xmlns="http://www.w3.org/2000/svg">
<path d="M0.875 0.875C0.529822 0.875 0.25 1.15482 0.25 1.5C0.25 1.84518 0.529822 2.125 0.875 2.125H2.02974C2.17132 2.125 2.29521 2.22019 2.33169 2.35698L4.46313 10.3499C3.11815 10.6988 2.125 11.9209 2.125 13.375C2.125 13.7202 2.40482 14 2.75 14H15.875C16.2202 14 16.5 13.7202 16.5 13.375C16.5 13.0298 16.2202 12.75 15.875 12.75H3.48169C3.73909 12.0218 4.43361 11.5 5.25 11.5H14.5985C14.8376 11.5 15.0557 11.3637 15.1604 11.1488C16.1064 9.20752 16.9319 7.19669 17.6273 5.12605C17.6826 4.96131 17.6668 4.78097 17.5837 4.62833C17.5007 4.47569 17.3578 4.36452 17.1894 4.32152C13.1712 3.29535 8.96135 2.75 4.625 2.75C4.32681 2.75 4.02921 2.75258 3.73223 2.75772L3.53948 2.0349C3.35708 1.35091 2.73762 0.875 2.02974 0.875H0.875Z" fill="#0F172A"/>
<path d="M2.125 15.875C2.125 15.1846 2.68464 14.625 3.375 14.625C4.06536 14.625 4.625 15.1846 4.625 15.875C4.625 16.5654 4.06536 17.125 3.375 17.125C2.68464 17.125 2.125 16.5654 2.125 15.875Z" fill="#0F172A"/>
<path d="M12.75 15.875C12.75 15.1846 13.3096 14.625 14 14.625C14.6904 14.625 15.25 15.1846 15.25 15.875C15.25 16.5654 14.6904 17.125 14 17.125C13.3096 17.125 12.75 16.5654 12.75 15.875Z" fill="#0F172A"/>
</svg>
