<svg width="12" height="12" viewBox="0 0 12 12" fill="none" xmlns="http://www.w3.org/2000/svg">
<path d="M2 7L2 0.5M2 7C2.55228 7 3 7.44772 3 8C3 8.55228 2.55228 9 2 9M2 7C1.44772 7 1 7.44772 1 8C1 8.55228 1.44771 9 2 9M2 11.5L2 9M10 7V0.5M10 7C10.5523 7 11 7.44772 11 8C11 8.55228 10.5523 9 10 9M10 7C9.44772 7 9 7.44772 9 8C9 8.55228 9.44771 9 10 9M10 11.5L10 9M6 3V0.5M6 3C6.55228 3 7 3.44772 7 4C7 4.55228 6.55228 5 6 5M6 3C5.44772 3 5 3.44772 5 4C5 4.55228 5.44771 5 6 5M6 11.5V5" stroke="#0A0A0A" stroke-linecap="round" stroke-linejoin="round"/>
</svg>
