<svg width="162" height="26" viewBox="0 0 162 26" fill="none" xmlns="http://www.w3.org/2000/svg">
<path d="M0 25.5V0.5H8.20156C10.4628 0.5 12.4275 0.87037 14.0956 1.61111C15.7822 2.35185 17.1723 3.33333 18.2659 4.55555C19.3594 5.77778 20.1749 7.12963 20.7124 8.61111C21.2499 10.0741 21.5187 11.537 21.5187 13C21.5187 14.463 21.2499 15.9352 20.7124 17.4167C20.1749 18.8796 19.3594 20.2222 18.2659 21.4444C17.1723 22.6667 15.7822 23.6481 14.0956 24.3889C12.4275 25.1296 10.4628 25.5 8.20156 25.5H0ZM3.16942 22.6667H7.86794C9.79554 22.6667 11.4173 22.3704 12.7333 21.7778C14.0492 21.1667 15.115 20.3796 15.9305 19.4167C16.746 18.4352 17.3299 17.3796 17.682 16.25C18.0527 15.1204 18.2381 14.037 18.2381 13C18.2381 11.963 18.0527 10.8796 17.682 9.75C17.3299 8.62037 16.746 7.57407 15.9305 6.61111C15.115 5.62963 14.0492 4.84259 12.7333 4.25C11.4173 3.63889 9.79554 3.33333 7.86794 3.33333H3.16942V22.6667Z" fill="#0A0A0A"/>
<path d="M26.7029 25.5V0.5H39.0469V3.33333H29.8723V8.66667H37.1008V11.5H29.8723V22.6667H39.0469V25.5H26.7029Z" fill="#0A0A0A"/>
<path d="M44.5517 25.5V0.5H47.7211V25.5H44.5517Z" fill="#0A0A0A"/>
<path d="M63.3753 25.5V0.5H75.7194V3.33333H66.5447V8.66667H73.7732V11.5H66.5447V22.6667H75.7194V25.5H63.3753Z" fill="#0A0A0A"/>
<path d="M80.8905 25.5V0.5H84.0599V22.6667H92.7341V25.5H80.8905Z" fill="#0A0A0A"/>
<path d="M97.5847 25.5V0.5H109.929V3.33333H100.754V8.66667H107.983V11.5H100.754V22.6667H109.929V25.5H97.5847Z" fill="#0A0A0A"/>
<path d="M125.511 26C123.713 26 122.017 25.6667 120.423 25C118.848 24.3148 117.458 23.3796 116.253 22.1944C115.067 21.0093 114.131 19.6296 113.445 18.0556C112.778 16.4815 112.444 14.7963 112.444 13C112.444 11.2037 112.778 9.51852 113.445 7.94444C114.131 6.37037 115.067 4.99074 116.253 3.80555C117.458 2.62037 118.848 1.69444 120.423 1.02778C122.017 0.342592 123.713 0 125.511 0C127.29 0 128.958 0.333333 130.515 0.999999C132.072 1.64815 133.444 2.5463 134.63 3.69444L133.712 7.52778C132.86 6.15741 131.711 5.06481 130.265 4.25C128.838 3.41667 127.253 3 125.511 3C123.676 3 122.017 3.4537 120.534 4.36111C119.07 5.25 117.902 6.4537 117.031 7.97222C116.16 9.47222 115.725 11.1481 115.725 13C115.725 14.8333 116.16 16.5093 117.031 18.0278C117.902 19.5463 119.07 20.7593 120.534 21.6667C122.017 22.5556 123.676 23 125.511 23C127.272 23 128.866 22.5833 130.293 21.75C131.72 20.9167 132.86 19.8241 133.712 18.4722L134.63 22.3056C133.444 23.4352 132.072 24.3333 130.515 25C128.958 25.6667 127.29 26 125.511 26Z" fill="#0A0A0A"/>
<path d="M137.132 3.33333V0.5H153.646V3.33333H146.974V25.5H143.805V3.33333H137.132Z" fill="#0A0A0A"/>
<path d="M158.831 25.5V0.5H162V25.5H158.831Z" fill="#0A0A0A"/>
</svg>
